<svg width="53" height="35" viewBox="0 0 53 35" fill="none" xmlns="http://www.w3.org/2000/svg">
<g clip-path="url(#clip0_18_29)">
<path d="M49.0307 0.137939H3.96931C1.77705 0.137939 0 1.91499 0 4.10725V30.8928C0 33.085 1.77705 34.8622 3.96931 34.8622H49.0307C51.2228 34.8622 53 33.0851 53 30.8928V4.10725C53 1.91499 51.2229 0.137939 49.0307 0.137939Z" fill="#41479B"/>
<path d="M52.945 3.45107C52.6322 1.57133 50.9992 0.137848 49.0307 0.137848H47.9979L31.069 11.2292V0.137951H21.931V11.2293L5.00208 0.137951H3.96931C2.00075 0.137951 0.367791 1.57133 0.0549668 3.45118L14.5242 12.9311H0V22.0691H14.5242L0.0549668 31.5488C0.367791 33.4286 2.00075 34.8621 3.96931 34.8621H5.00208L21.931 23.7707V34.8621H31.069V23.7707L47.9979 34.8621H49.0307C50.9992 34.8621 52.6322 33.4287 52.945 31.5488L38.4758 22.0689H53V12.9309H38.4758L52.945 3.45107Z" fill="#F5F5F5"/>
<path d="M29.2414 0.137939H23.7586V14.7586H0V20.2414H23.7586V34.862H29.2414V20.2414H53V14.7586H29.2414V0.137939Z" fill="#FF4B55"/>
<path d="M2.56647 34.6062L21.8807 22.069H18.5239L0.954834 33.4735C1.38473 33.9752 1.9372 34.3684 2.56647 34.6062Z" fill="#FF4B55"/>
<path d="M35.8566 22.069H32.4998L51.2067 34.2119C51.7302 33.8681 52.167 33.4037 52.4786 32.8584L35.8566 22.069Z" fill="#FF4B55"/>
<path d="M0.419128 2.33237L16.7466 12.931H20.1035L1.6019 0.921143C1.10513 1.2909 0.698621 1.77432 0.419128 2.33237Z" fill="#FF4B55"/>
<path d="M34.4258 12.931L52.0271 1.5055C51.5924 1.00541 51.0356 0.614538 50.402 0.381317L31.069 12.931H34.4258Z" fill="#FF4B55"/>
</g>
<defs>
<clipPath id="clip0_18_29">
<rect width="53" height="35" fill="white"/>
</clipPath>
</defs>
</svg>
